<?xml version="1.0" standalone="no"?>
<!DOCTYPE svg PUBLIC "-//W3C//DTD SVG 20010904//EN"
 "http://www.w3.org/TR/2001/REC-SVG-20010904/DTD/svg10.dtd">
<svg version="1.0" xmlns="http://www.w3.org/2000/svg"
 width="191.000000pt" height="191.000000pt" viewBox="0 0 191.000000 191.000000"
 preserveAspectRatio="xMidYMid meet">
<metadata>
Created by potrace 1.11, written by Peter Selinger 2001-2013
</metadata>
<g transform="translate(0.000000,191.000000) scale(0.100000,-0.100000)"
fill="#000000" stroke="none">
<path d="M760 1825 c-321 -72 -578 -315 -665 -630 -22 -80 -30 -271 -16 -363
43 -273 226 -520 476 -642 113 -55 211 -80 340 -87 398 -20 754 226 876 607
40 126 50 302 25 430 -65 320 -304 580 -618 671 -96 28 -322 36 -418 14z m415
-30 c297 -87 515 -312 597 -614 29 -107 29 -315 0 -422 -88 -325 -338 -564
-661 -631 -77 -16 -119 -19 -211 -15 -235 12 -420 96 -583 266 -92 96 -157
204 -199 331 -31 91 -32 102 -32 260 0 155 2 170 28 250 36 107 72 178 128
255 137 185 328 304 556 345 89 17 278 4 377 -25z"/>
<path d="M895 1810 c-3 -5 -1 -10 4 -10 6 0 11 5 11 10 0 6 -2 10 -4 10 -3 0
-8 -4 -11 -10z"/>
<path d="M883 1750 c1 -24 7 -40 15 -40 8 0 12 13 10 40 -2 23 -8 40 -15 40
-8 0 -12 -14 -10 -40z"/>
<path d="M949 1755 c18 -38 26 -43 35 -19 3 8 2 13 -3 10 -5 -3 -12 5 -15 19
-4 14 -12 25 -20 25 -11 0 -10 -7 3 -35z"/>
<path d="M998 1778 c-6 -17 3 -68 12 -68 4 0 10 18 12 40 2 26 -1 40 -8 40 -7
0 -14 -5 -16 -12z"/>
<path d="M794 1743 c10 -30 18 -38 37 -38 20 0 24 5 25 30 1 28 1 28 -3 3 -6
-40 -31 -35 -39 7 -3 19 -12 35 -20 35 -11 0 -11 -6 0 -37z"/>
<path d="M1048 1740 c-2 -28 0 -40 9 -40 7 0 13 11 13 24 0 13 3 31 6 40 4 10
1 16 -9 16 -10 0 -16 -13 -19 -40z"/>
<path d="M748 1740 c13 -23 14 -32 4 -42 -16 -16 -33 1 -35 36 -2 23 -3 24
-14 10 -17 -23 0 -52 39 -68 l30 -13 -38 -6 c-46 -8 -166 -64 -229 -107 -118
-81 -225 -226 -271 -366 -26 -79 -29 -103 -29 -214 1 -144 14 -200 78 -325 59
-116 190 -245 307 -303 131 -65 226 -85 379 -80 103 4 141 10 206 32 385 131
592 532 465 902 -59 171 -198 328 -365 411 -119 60 -282 89 -414 73 -88 -10
-105 -6 -91 20 14 26 13 36 -6 54 -25 26 -34 18 -16 -14z m375 -90 c254 -62
457 -259 522 -510 19 -71 25 -217 12 -295 -8 -42 -10 -46 -19 -30 -6 11 -20
30 -31 42 -17 19 -18 26 -8 54 6 18 11 51 11 74 0 57 -25 80 -79 71 -34 -5
-42 -3 -51 14 -8 15 -17 19 -34 14 -25 -6 -44 10 -26 21 14 9 13 35 -2 35 -6
0 -19 -7 -28 -15 -9 -8 -40 -19 -68 -25 -29 -5 -61 -14 -72 -20 -14 -8 -26 -8
-40 0 -17 9 -20 8 -20 -12 0 -19 -2 -20 -10 -8 -5 8 -10 32 -10 52 0 68 -60
106 -213 139 -46 10 -61 18 -68 36 -5 14 -17 23 -31 23 -24 1 -60 26 -72 50
-3 9 -4 5 -2 -7 5 -26 -2 -29 -29 -9 -24 17 -22 71 3 105 24 34 78 61 121 61
24 0 42 -9 67 -34 19 -19 34 -41 34 -49 0 -8 7 -20 15 -27 19 -16 19 -47 0
-83 -10 -19 -11 -27 -3 -25 6 2 18 24 26 47 13 39 13 45 -4 69 -11 15 -26 40
-34 56 -60 117 -242 63 -257 -77 -5 -38 -8 -44 -25 -39 -11 2 -30 -1 -44 -9
-21 -11 -29 -10 -53 4 -25 15 -30 15 -49 1 -26 -18 -28 -51 -7 -81 15 -21 14
-23 -18 -38 -20 -9 -40 -30 -51 -51 -11 -25 -21 -34 -32 -30 -13 5 -84 -17
-84 -26 0 -2 18 -2 39 0 26 3 48 -2 63 -12 12 -9 29 -16 38 -16 40 0 98 -26
173 -77 45 -31 111 -66 147 -78 52 -18 60 -24 43 -29 -28 -9 -73 -62 -73 -86
0 -16 -7 -18 -62 -14 -60 4 -134 17 -207 35 -18 4 -46 5 -62 2 -22 -4 -29 -2
-29 10 0 8 -27 29 -62 47 -113 57 -116 68 -51 162 32 46 34 51 12 37 -35 -23
-89 -107 -89 -139 0 -25 9 -33 79 -71 51 -27 78 -47 77 -58 -1 -13 7 -15 40
-13 22 2 69 -3 105 -12 35 -8 93 -17 129 -21 36 -4 79 -11 95 -16 30 -10 86
-69 66 -69 -6 0 -11 -18 -11 -39 0 -32 6 -44 35 -70 20 -17 46 -31 58 -32 12
0 16 -3 10 -6 -7 -2 -13 -18 -13 -33 0 -18 -7 -33 -17 -38 -19 -9 -117 -37
-165 -47 -16 -3 -28 -10 -28 -15 0 -6 90 -10 240 -10 217 0 271 6 224 24 -9 3
-24 6 -35 6 -24 0 -140 38 -155 51 -7 5 -14 21 -17 34 -5 29 12 32 76 14 22
-6 42 -7 45 -4 14 14 -40 43 -90 51 -29 4 -47 9 -40 11 6 3 12 18 12 34 0 16
5 29 10 29 6 0 51 -14 100 -31 94 -32 137 -32 125 -1 -5 14 -4 15 6 4 7 -6 19
-12 26 -12 7 0 22 -9 34 -21 16 -16 27 -19 52 -13 18 4 62 8 99 8 39 1 72 6
80 14 6 6 24 12 38 12 14 0 32 6 39 13 24 22 -23 -53 -65 -105 -94 -113 -260
-214 -404 -244 -102 -22 -290 -14 -380 15 -199 64 -352 194 -440 376 -95 195
-92 402 7 604 82 166 238 300 417 357 142 45 273 49 419 14z m-491 -332 c40
15 93 -1 122 -36 10 -12 44 -36 76 -52 32 -16 61 -34 65 -40 3 -5 14 -10 24
-10 10 0 31 -12 47 -27 l29 -26 -139 6 c-77 4 -192 7 -257 7 l-118 0 20 34
c13 22 30 36 50 40 37 7 47 30 25 66 -22 39 -21 53 4 38 15 -10 26 -10 52 0z
m433 -108 c42 -18 67 -42 79 -74 8 -23 3 -21 -114 49 -94 55 -94 56 -50 50 25
-4 63 -15 85 -25z m-32 -77 c-7 -2 -19 -2 -25 0 -7 3 -2 5 12 5 14 0 19 -2 13
-5z m46 -94 c-7 -31 -20 -56 -41 -75 l-32 -29 27 33 c15 19 30 46 33 60 10 46
16 64 19 60 2 -2 -1 -24 -6 -49z m301 36 c7 -8 25 -15 40 -15 16 0 30 -7 34
-16 5 -12 14 -14 45 -9 32 5 43 3 60 -14 24 -24 26 -52 9 -116 -11 -41 -10
-46 10 -68 12 -13 22 -33 22 -45 0 -18 -6 -22 -29 -22 -34 0 -61 -23 -61 -50
0 -19 25 -50 41 -50 5 0 9 -7 9 -15 0 -8 -9 -15 -21 -15 -11 0 -29 -4 -39 -10
-10 -5 -61 -12 -114 -15 -89 -4 -96 -3 -107 16 -6 11 -17 18 -24 15 -8 -3 -35
5 -62 18 -26 13 -62 26 -78 29 -34 6 -61 -5 -51 -21 5 -8 -3 -8 -25 0 l-32 11
34 17 c40 21 64 46 73 77 5 17 0 30 -19 49 -24 24 -31 26 -81 20 -61 -7 -75 8
-16 18 49 7 117 56 145 103 11 20 23 31 25 25 2 -7 10 -12 17 -12 23 0 114 61
120 81 3 10 16 20 28 22 12 2 25 5 28 6 4 0 12 -6 19 -14z m-133 -50 c-15 -14
-33 -25 -40 -25 -7 0 1 12 16 25 15 14 33 25 40 25 7 0 -1 -12 -16 -25z m-337
-202 c0 -14 -3 -23 -7 -20 -3 4 -15 0 -25 -10 -17 -15 -18 -15 -18 2 0 19 27
55 42 55 4 0 8 -12 8 -27z m110 -53 c0 -14 -11 -22 -41 -30 -23 -6 -44 -9 -47
-6 -3 3 2 6 11 6 11 0 17 8 17 25 0 21 5 25 30 25 23 0 30 -4 30 -20z m601
-43 l-22 -54 -30 26 c-38 33 -37 51 1 51 17 0 38 8 48 18 26 28 27 18 3 -41z
m-682 -53 c2 -2 -4 -4 -13 -4 -15 0 -17 -7 -14 -35 4 -34 3 -35 -13 -18 -9 10
-19 30 -23 45 -6 27 -5 27 26 21 18 -3 35 -7 37 -9z m211 -14 c8 -5 11 -10 5
-10 -5 0 -17 5 -25 10 -8 5 -10 10 -5 10 6 0 17 -5 25 -10z"/>
<path d="M1100 1755 c-7 -8 -10 -25 -6 -40 9 -35 23 -31 18 5 -5 34 18 50 43
30 9 -7 15 -8 15 -2 0 23 -52 29 -70 7z"/>
<path d="M930 1735 c0 -14 4 -25 9 -25 4 0 6 11 3 25 -2 14 -6 25 -8 25 -2 0
-4 -11 -4 -25z"/>
<path d="M1204 1726 c-3 -14 -10 -24 -14 -21 -4 3 -14 -3 -21 -13 -11 -14 -11
-15 0 -5 17 15 41 6 34 -13 -3 -8 1 -14 11 -14 13 0 15 7 10 43 -8 52 -11 56
-20 23z"/>
<path d="M618 1723 c7 -3 16 -2 19 1 4 3 -2 6 -13 5 -11 0 -14 -3 -6 -6z"/>
<path d="M580 1716 c0 -2 7 -20 15 -40 16 -38 41 -51 30 -16 -4 11 -2 20 4 20
6 0 8 7 4 16 -4 11 -8 12 -13 4 -5 -8 -9 -7 -13 4 -5 14 -27 23 -27 12z"/>
<path d="M1306 1686 c4 -16 1 -32 -6 -41 -7 -9 -10 -19 -6 -23 12 -11 33 25
32 55 -1 14 -7 28 -14 31 -9 3 -11 -3 -6 -22z"/>
<path d="M512 1681 c-11 -7 -11 -14 3 -42 22 -43 22 -42 35 -34 7 4 4 16 -10
35 -24 34 -25 40 -5 40 9 0 22 -14 29 -31 11 -27 14 -28 18 -12 11 42 -32 69
-70 44z"/>
<path d="M647 1666 c-4 -10 -1 -13 8 -9 8 3 12 9 9 14 -7 12 -11 11 -17 -5z"/>
<path d="M1345 1670 c-3 -6 1 -7 9 -4 18 7 21 14 7 14 -6 0 -13 -4 -16 -10z"/>
<path d="M1410 1637 c0 -7 -9 -23 -20 -34 -17 -18 -17 -23 -5 -33 12 -10 15
-9 15 5 0 11 5 15 15 12 8 -4 17 -2 20 3 4 6 1 10 -5 10 -7 0 -9 8 -5 19 3 11
1 22 -5 26 -5 3 -10 0 -10 -8z"/>
<path d="M417 1614 l-28 -15 23 -29 c13 -16 28 -29 34 -29 17 -1 34 22 34 46
0 32 -29 44 -63 27z m43 -24 c17 -32 0 -47 -21 -19 -23 29 -24 39 -4 39 8 0
19 -9 25 -20z"/>
<path d="M1446 1617 c3 -10 9 -15 12 -12 3 3 0 11 -7 18 -10 9 -11 8 -5 -6z"/>
<path d="M1475 1570 c-3 -5 -4 -10 -1 -10 3 0 1 -11 -4 -25 -5 -13 -5 -27 -1
-30 8 -4 31 45 31 66 0 12 -17 11 -25 -1z"/>
<path d="M1430 1550 c-8 -5 -10 -10 -5 -10 6 0 17 5 25 10 8 5 11 10 5 10 -5
0 -17 -5 -25 -10z"/>
<path d="M346 1535 c3 -8 9 -14 12 -13 19 2 25 -3 13 -11 -10 -7 -11 -13 -2
-27 11 -18 11 -18 9 1 -2 14 3 20 16 20 32 0 29 22 -5 34 -42 15 -49 14 -43
-4z"/>
<path d="M1518 1508 c-24 -25 -23 -48 2 -33 6 4 10 -6 11 -22 0 -27 1 -27 11
-5 6 12 17 22 25 22 19 0 16 34 -4 51 -16 13 -21 12 -45 -13z m52 -8 c0 -5 -7
-10 -16 -10 -8 0 -12 5 -9 10 3 6 10 10 16 10 5 0 9 -4 9 -10z"/>
<path d="M292 1497 c-24 -26 -28 -37 -11 -37 5 0 7 5 4 10 -10 16 4 12 35 -10
37 -26 48 -12 13 17 -24 19 -26 24 -13 33 8 5 10 10 4 10 -6 0 -20 -10 -32
-23z"/>
<path d="M1595 1450 c-3 -5 -3 -10 1 -10 3 0 -1 -11 -10 -25 -16 -24 -16 -25
5 -25 12 0 19 3 16 7 -4 3 -1 16 7 29 14 21 12 34 -5 34 -4 0 -11 -4 -14 -10z"/>
<path d="M1559 1423 c-13 -16 -12 -17 4 -4 16 13 21 21 13 21 -2 0 -10 -8 -17
-17z"/>
<path d="M226 1415 c-3 -9 0 -15 7 -15 7 0 23 -9 35 -20 13 -13 23 -16 27 -9
4 6 5 11 4 13 -55 40 -67 45 -73 31z"/>
<path d="M1633 1395 c-7 -8 -20 -18 -29 -23 -9 -5 -14 -14 -10 -21 5 -7 14 -4
28 9 12 11 28 20 35 20 7 0 10 6 7 15 -7 18 -15 18 -31 0z"/>
<path d="M257 1340 c4 -15 0 -20 -14 -20 -10 0 -24 5 -30 11 -7 7 -20 8 -30 4
-15 -5 -11 -9 20 -22 30 -12 40 -13 52 -3 17 14 20 36 6 44 -5 4 -7 -3 -4 -14z"/>
<path d="M1661 1333 c3 -21 -3 -24 -18 -12 -16 12 -17 12 -6 -2 9 -11 9 -19 2
-26 -7 -7 -7 -13 -1 -17 5 -3 22 10 36 29 26 33 26 35 7 35 -12 0 -20 -3 -20
-7z"/>
<path d="M168 1293 c7 -3 16 -2 19 1 4 3 -2 6 -13 5 -11 0 -14 -3 -6 -6z"/>
<path d="M151 1265 c-2 -42 44 -60 70 -28 11 13 11 15 1 9 -20 -12 -60 2 -65
22 -4 14 -5 13 -6 -3z"/>
<path d="M1660 1250 c-13 -24 -7 -25 25 -4 13 9 30 12 36 8 8 -4 9 -3 5 4 -12
19 -54 14 -66 -8z"/>
<path d="M1726 1225 c-3 -8 -1 -15 4 -15 6 0 10 7 10 15 0 8 -2 15 -4 15 -2 0
-6 -7 -10 -15z"/>
<path d="M157 1193 c-31 -4 -36 -7 -27 -18 6 -8 19 -11 27 -8 10 4 14 2 10 -4
-4 -6 1 -17 11 -24 15 -13 16 -12 4 3 -11 14 -10 18 7 28 20 10 30 32 14 28
-5 -1 -25 -3 -46 -5z"/>
<path d="M1708 1186 c-25 -7 -35 -15 -30 -23 5 -8 13 -9 22 -3 8 6 25 10 38
10 12 0 22 4 22 9 0 16 -14 18 -52 7z"/>
<path d="M110 1129 c0 -5 5 -7 10 -4 6 3 10 8 10 11 0 2 -4 4 -10 4 -5 0 -10
-5 -10 -11z"/>
<path d="M1710 1109 c0 -11 -4 -17 -10 -14 -5 3 -10 2 -10 -4 0 -20 17 -19 49
2 30 18 32 22 15 28 -32 13 -44 10 -44 -12z"/>
<path d="M136 1108 c5 -8 0 -9 -14 -6 -15 4 -22 2 -22 -8 0 -8 9 -14 21 -14
11 0 29 -5 40 -10 15 -8 19 -7 19 5 0 8 -7 15 -16 15 -10 0 -14 6 -10 15 3 9
0 15 -10 15 -9 0 -12 -5 -8 -12z"/>
<path d="M227 605 c-52 -41 -18 -77 48 -50 l20 8 -20 -23 c-11 -13 -14 -20 -6
-15 11 6 12 1 7 -30 l-7 -37 29 21 c34 23 42 26 42 11 0 -6 -14 -19 -30 -29
-23 -13 -27 -20 -18 -27 9 -7 22 -1 40 17 24 23 26 28 14 45 -12 16 -16 17
-32 4 -16 -14 -17 -13 -12 15 4 16 2 38 -3 48 -9 16 -12 16 -32 2 -25 -17 -57
-20 -57 -5 0 6 13 19 30 28 16 9 30 20 30 24 0 17 -17 14 -43 -7z"/>
<path d="M1596 588 c-15 -21 -14 -22 22 -38 41 -19 65 -14 37 7 -18 12 -18 13
2 13 12 0 25 5 28 10 3 6 -3 10 -14 10 -11 0 -23 5 -26 10 -10 17 -33 11 -49
-12z m34 -9 c0 -6 -4 -7 -10 -4 -5 3 -10 11 -10 16 0 6 5 7 10 4 6 -3 10 -11
10 -16z"/>
<path d="M1562 538 c-7 -7 -12 -19 -12 -28 0 -40 61 -55 80 -21 13 25 13 27
-6 45 -18 19 -45 21 -62 4z m39 -8 c19 -11 27 -50 10 -50 -18 0 -54 37 -47 48
9 15 12 15 37 2z"/>
<path d="M235 510 c3 -5 8 -10 11 -10 2 0 4 5 4 10 0 6 -5 10 -11 10 -5 0 -7
-4 -4 -10z"/>
<path d="M1507 462 c-16 -17 -15 -20 11 -45 28 -27 29 -27 45 -9 20 22 22 43
5 60 -17 17 -42 15 -61 -6z m47 -11 c27 -30 9 -47 -20 -20 -13 12 -21 26 -18
30 8 14 19 11 38 -10z"/>
<path d="M352 427 c-16 -44 -15 -46 7 -40 12 3 17 11 14 19 -3 8 0 20 6 28 10
12 6 26 -9 26 -3 0 -11 -15 -18 -33z"/>
<path d="M395 410 c-3 -6 1 -7 9 -4 23 9 19 -6 -9 -36 l-25 -26 45 -32 c38
-26 45 -29 46 -14 1 11 3 9 8 -7 3 -13 16 -30 28 -38 20 -13 21 -13 16 7 -4
16 -8 18 -14 8 -6 -9 -9 -7 -9 8 0 12 7 24 15 28 21 8 19 23 -6 44 -12 9 -36
29 -54 45 -36 30 -41 32 -50 17z m65 -46 c11 -12 10 -18 -6 -35 -18 -17 -22
-18 -39 -5 -19 14 -19 15 -1 35 23 25 30 26 46 5z m40 -34 c0 -5 -4 -10 -10
-10 -5 0 -10 5 -10 10 0 6 5 10 10 10 6 0 10 -4 10 -10z"/>
<path d="M420 349 c0 -5 5 -7 10 -4 6 3 10 8 10 11 0 2 -4 4 -10 4 -5 0 -10
-5 -10 -11z"/>
<path d="M1456 397 c6 -16 62 -38 69 -27 3 5 -8 16 -24 25 -37 18 -52 19 -45
2z"/>
<path d="M1426 375 c4 -8 8 -15 10 -15 2 0 4 7 4 15 0 8 -4 15 -10 15 -5 0 -7
-7 -4 -15z"/>
<path d="M1470 359 c0 -5 5 -7 10 -4 6 3 10 8 10 11 0 2 -4 4 -10 4 -5 0 -10
-5 -10 -11z"/>
<path d="M1380 353 c0 -9 57 -43 70 -43 4 0 6 9 3 19 -3 11 -11 17 -18 15 -7
-3 -16 -1 -20 5 -7 12 -35 15 -35 4z"/>
<path d="M1334 322 c-6 -4 -2 -22 12 -46 12 -21 24 -33 28 -28 9 15 -28 82
-40 74z"/>
<path d="M524 306 c-3 -8 -1 -23 5 -34 6 -11 7 -22 4 -26 -3 -3 -1 -6 5 -6 18
0 25 20 12 35 -7 8 -10 22 -6 30 3 8 1 15 -5 15 -5 0 -12 -6 -15 -14z"/>
<path d="M560 294 c0 -8 5 -12 10 -9 15 9 12 -18 -5 -42 -11 -16 -12 -22 -2
-26 7 -3 19 11 28 33 16 37 16 38 -7 49 -20 9 -24 8 -24 -5z"/>
<path d="M1397 281 c-4 -17 -3 -21 5 -13 5 5 8 16 6 23 -3 8 -7 3 -11 -10z"/>
<path d="M1281 243 c0 -34 3 -42 8 -28 5 11 6 27 3 35 -3 8 4 5 14 -7 12 -13
25 -19 33 -14 8 6 1 16 -23 35 l-36 27 1 -48z"/>
<path d="M608 239 c-13 -30 -13 -39 -3 -43 9 -3 16 6 20 24 4 17 11 32 16 36
15 9 22 -23 9 -45 -12 -24 1 -28 20 -6 16 19 5 50 -23 62 -20 9 -24 7 -39 -28z"/>
<path d="M1230 266 c0 -2 7 -7 16 -10 8 -3 12 -2 9 4 -6 10 -25 14 -25 6z"/>
<path d="M1210 248 c0 -9 14 -23 31 -32 28 -14 30 -14 27 2 -2 9 -12 18 -23
21 -11 2 -23 8 -27 15 -5 7 -8 5 -8 -6z"/>
<path d="M709 240 c-8 -22 -3 -80 8 -84 9 -4 13 4 12 22 0 26 -15 73 -20 62z"/>
<path d="M757 193 c-10 -62 9 -61 23 1 6 27 5 36 -5 36 -7 0 -15 -17 -18 -37z"/>
<path d="M1114 214 c3 -9 9 -27 12 -40 9 -37 27 -29 19 9 -9 39 -13 47 -27 47
-5 0 -7 -7 -4 -16z"/>
<path d="M807 200 c3 -12 -2 -29 -12 -40 -21 -24 -4 -27 19 -4 20 19 20 38 2
53 -12 10 -13 8 -9 -9z"/>
<path d="M1048 180 c3 -27 9 -40 19 -40 10 0 12 6 8 21 -5 15 -4 19 4 15 6 -4
11 0 11 9 0 9 -4 13 -10 10 -5 -3 -10 1 -10 9 0 9 -6 16 -13 16 -9 0 -11 -12
-9 -40z"/>
<path d="M868 170 c-4 -40 -3 -41 26 -38 51 5 62 61 15 77 -12 4 -12 2 -1 -12
8 -9 11 -25 7 -37 -10 -32 -25 -23 -25 15 0 48 -17 44 -22 -5z"/>
<path d="M948 170 c4 -42 22 -56 22 -17 0 18 2 19 10 7 8 -12 10 -10 10 8 0
13 -4 20 -10 17 -5 -3 -10 -1 -10 6 0 6 8 9 20 6 11 -3 18 -1 14 4 -3 5 -17 9
-32 9 -26 0 -27 -2 -24 -40z"/>
<path d="M670 185 c-7 -9 -8 -15 -2 -15 5 0 12 7 16 15 3 8 4 15 2 15 -2 0 -9
-7 -16 -15z"/>
<path d="M1227 189 c7 -7 15 -10 18 -7 3 3 -2 9 -12 12 -14 6 -15 5 -6 -5z"/>
<path d="M1176 175 c-3 -8 -1 -15 4 -15 6 0 10 7 10 15 0 8 -2 15 -4 15 -2 0
-6 -7 -10 -15z"/>
<path d="M1100 155 c-8 -9 -8 -15 -2 -15 12 0 26 19 19 26 -2 2 -10 -2 -17
-11z"/>
<path d="M990 140 c-13 -8 -12 -10 3 -10 9 0 17 5 17 10 0 12 -1 12 -20 0z"/>
</g>
</svg>
